<?xml version="1.0" encoding="utf-8"?>
<!-- Generator: Adobe Illustrator 23.0.3, SVG Export Plug-In . SVG Version: 6.00 Build 0)  -->
<svg version="1.1" id="Layer_1" xmlns="http://www.w3.org/2000/svg" xmlns:xlink="http://www.w3.org/1999/xlink" x="0px" y="0px"
	 viewBox="0 0 864 864" style="enable-background:new 0 0 864 864;" xml:space="preserve">
<style type="text/css">
	.st0{fill:crimson;}
</style>
<path class="st0" d="M361.25,610.13c0.91-25.4,24.07-70.67,48.46-81.72c78,91.96,106.81,196.87,137.32,306.99
	c21.88-19.11,44.27-41.07,63.4-63.76c30.94-36.69-10.18-47.88-8.98-85.08c9.33,6.85,27.05,38.82,37.5,40.21
	c7.23,0.97,31.49-17.52,37.6-21.9c-5.01-15.75-18.25-32.4-27.77-44.21c7.23,2.64,40.85,26.26,47.1,25.94
	c10.22-0.55,29.72-29.22,36.68-36.37c13.06-13.37,23.95-28.68,37.33-41.47c11.76-11.23,34.06-16.53,37.03-33.36
	c-27.59-0.4-53.76-14.49-77.98-23.52c-24.73-9.21-49.67-11.84-73.33-21.85c-29.14-12.34-54.32-30.15-80.71-47.42
	c-20.45-13.38-55.63-23.26-71.32-42.65c16.1-20.19,52.14-41.48,74.27-56.88c23.46-16.32,48.83-34.45,72.83-49.29
	c25.97-16.08,57.56-29.82,87.81-31.35c15.01-0.75,32.65-1.84,47.4,0.52c15.42,2.49,28.47,13.6,44.25,7.17
	c-28.68-16.23-58.07-37.54-85.82-57.4c-10.29-7.4-33.76-37.52-46.14-38.08c-10.88-0.5-24.93,18.48-34.6,24.02
	c5.69-12.35,13.31-30.48,15.76-44.42c-12.35,12.18-32.6,23.11-48.98,27.85c10.39-18.5,27.39-36.51,19.84-56
	c-6.9-17.85-29.91-33.58-44.38-45.57c-29.93-24.79-73.57-60.55-90.12-90.98c-0.07,62.96-9.28,117.56-18.98,177.58
	c-4.86,30.24-14.72,63.09-25.99,90.57c-9.65,23.53-45.69,39.18-50.19,58.95c-29.61-4.85-47.7-41.47-69-61.32
	c-19.14-17.81-35.56-41.37-46.11-64.65c-11.24-24.84-25.69-49.71-36.21-75.19c-6.57-15.94-6.07-27.83-7.09-45.02
	c-0.87-14.69-7.46-27.9-7.01-41.83c-10.32,8.65-14.62,21.09-20.9,32.99c-6.74,12.73-24.7,25.54-29.02,36.8
	c-8.94,23.29,32.12,37.03,25.77,64.11c-20.12-0.84-36.23-23.61-54.14-23.33c-14.49,0.21-33.98,18.5-44.44,28.99
	c-16.31,16.33-30.58,35.81-48.59,51.09c-13.75,11.67-42.47,21.23-48.88,35.61c68.84,13.66,127.12,43.4,191.52,72.16
	c17.81,7.95,34.78,14.35,51.69,26c11.83,8.16,56,39.93,64.56,51.56c0,0-48.22,38.05-66.88,53.99
	c-65.11,55.55-139.4,72.72-223.95,71.52c16.43,6.03,70.15,62.1,80.94,80.58c4.69-7.27,36.47-29,69.66-42.27
	c0.86,18.74-11.28,34.95-15.76,51.61c5.16-5.93,12.51-9.36,20.56-8.89c0.9,17.75-0.26,36.05,0.78,53.73
	c20.93,10.48,42.13,41.37,59.42,59.08c0.08,0.07,20.69,17.89,49.19,59.83c-4.65-19.8-2.36-52.19,0-59.25
	c7.63-22.71,2.8-29.17,7.05-52.2C328.43,686.6,333.43,622.4,361.25,610.13z"/>
</svg>
