<?xml version="1.0" encoding="utf-8"?>
<!-- Generator: Adobe Illustrator 24.1.2, SVG Export Plug-In . SVG Version: 6.00 Build 0)  -->
<svg version="1.1" id="Layer_1" xmlns="http://www.w3.org/2000/svg" xmlns:xlink="http://www.w3.org/1999/xlink" x="0px" y="0px"
	 viewBox="0 0 1366 768" style="enable-background:new 0 0 1366 768;" xml:space="preserve">
<style type="text/css">
	.st0{fill:#F5F5F5;}
</style>
<desc>Positive/Negative Art
    
    Original image by Last-Dino https://openclipart.org/detail/104821/tall-ship
    Idea for remixed image from http://drydenart.weebly.com/fugleblog/downton-abbey-positivenegative-space
    
    Jay Nick
    STEAMcoded.org
	</desc>
<g>
	<rect x="299" y="-122.7" class="st0" width="384" height="1013.5"/>
	<path d="M310.3,440.3l9.8,5.3l4.1-3.2l26.3,1.6l8.9,16.6l0.9-0.2l18.5,25.2l-29.3,50.5l-5.6,0.2v3.5l8.3-0.2l0.9,0.6l0.3-0.6
		l34.4-0.8l-0.4,0.6l25.9,17.8l-0.6,4.4l2.2,0.6l1.5-9l0.1-0.2l-0.1-0.1l1.1-6.6c9.2,2.1,17.4,4,17.4,4l0.3-1.5h2.8L438,545
		l48.8,56.8l-1.5,1.9c0,0,15.7,0.8,15,0.8c-0.7,0-13.9,6.4-13.9,6.4s12.8,7.1,13.5,13.5c2.2,20.2,0.7,29.6,11.9,35.6
		c-11-22.8,1.8-31.2,1.5-37.3c-0.4-5.9-4.4-17.1-4.4-17.1c38.1,10.6,42.7,20.6,58,30.8l6.8,18.5l0.3-0.8l-0.4,3.4l2.2,0.4l4.9-40.3
		c1.8-0.1,3.7-0.2,5.5-0.3c3.4-0.2,6.5-0.3,9.1-0.4v4.9l-2.2,1.2l-1.1,5.7l-7-0.3l1.1,1.9h-2.6l0.4,2.3h2.2v1.2h3.7l-1.1,2.7
		l5.2,0.3l0.4,3.6h-1.9l-3.3-1.9l-7,5.2l1.9,2.7l-3.3,0.3l-1.2,1.6h2.6l2.6,3l7-5.7l7.2-0.8l1.4-8.7l31.1-12.8l8.3-15.1l4.2,11.9
		c16.9-8.5,31.7-9.4,38.9-6.5l-6.6-364.7c0,0-15.2-4-26.9-8.6c-10.6-23.2-18.8-47.3-60.8-73.6l1.9-0.1l0.6-2.8l-5.4,0.1l-43.8-45.3
		l-0.8,0.9l-1.5-1.4l-3.9-8l2.3,6.5l-0.4-0.4L386.9,287.6l-13.9,5.5l1.6-6.1h-2.8l-8.5,22.9l-30.7,2.6l0.2,3l29.7-1.3l-4.4,19.7
		l2.6,0.5c0,0,1.8-9.3,2.8-9.3c0.8,0,11.9,0.7,17.2,1.1c1.8,4.1,3.7,8,5.5,11.9l-43.3,76.9l-0.6-2.3h-4.1l10.3,26.1l-23.7-0.5
		l-5.2-3.2L310.3,440.3L310.3,440.3z M347.9,416.4l40.8-72.6c2.5,5.4,5,10.9,7.5,16.8l-21.4,44.1l-3,0.2l1.3,3.1l-0.8,1.6l1.9,1
		l1.2,2.8L347.9,416.4z M355.7,536l26.5-45.8l22.9,31.1l-19.1,13.8C385.9,535.1,355.7,536,355.7,536z M362.8,454.9l23.8,2.9
		l-5.7-14.4l6.7,0.5l5.4,17l-11.3,19.6C381.7,480.6,362.8,454.9,362.8,454.9z M375.6,426.9c0-2.8,1.1-5.4,2.2-8l7.6,18.1l-8,0.7
		l-1.6-8.7C375.6,428.4,375.6,427.6,375.6,426.9z M379,408.2l19.9-41.1c4.3,10.8,8.6,23.3,12.9,39
		C402.8,408.8,392.3,410.4,379,408.2z M383.2,318.7c0-1.9,0.3-4.1,1.1-6.7h12.4l-4.1,14.5l-3.3,5.9c-2-4.3-3.9-8.6-5.9-13.1l-0.1,0
		C383.2,319.1,383.2,318.9,383.2,318.7z M384.5,306.6c0.2-5.2,1.7-9.6,3.9-13.5l0.4,0.3l149.6-170.8l2.2,2.3l3.1,9.1
		C510.4,176.1,481,217,443.4,260.4l0.2-3.3l-2.6,0.8l-1.2,8.2l-13,11.2l-20.6,9.3l1.8-9.6h-2.8l-7.3,29.3L384.5,306.6L384.5,306.6z
		 M385,485.2l11.1-19.3l3.1,0.5l-0.9-4.3l0.5-0.9l48.8,9.3l2.6,7.9l2,0.3c0.6,18.4-2.1,28-5.7,34.5c-3.4,6.1-8,9.6-12.1,15h-0.1
		l-0.2,0.4c-0.5,0.6-0.9,1.2-1.3,1.8l0.2,0.2l-2.5,4.7l-10.9-0.2l1.3-1.1l-1.2-1.6l2.4-17.2l1.1-0.7l-0.8-1.2l0.8-6l-2.4-0.2
		l-0.5,3.2l-0.1-0.1l-11.1,8.1C409.3,518.2,385,485.2,385,485.2z M391.9,338.2l8.3-14.8l13,2.2l-13.9,28.8
		C396.8,348.8,394.3,343.5,391.9,338.2z M393.5,534.9l14.4-9.8l6.8,9.2L393.5,534.9z M401.9,360.9l16.6-34.3l3.7,0.6l10.9,12.6
		l-0.1,11h3.1l0.1-7.3l17.6,20.3L434.3,400c-1.4-0.2-2.7-0.4-4.1-0.6l-2.2-4.9l-4.4,0.7l2.1,6c-2.9,1.1-5.9,2.2-9.1,3.3
		C411.7,386.6,406.8,372.8,401.9,360.9L401.9,360.9z M401.9,542.9c3.6,0.8,7.6,1.7,11.7,2.6c0.5,0.1,0.8,0.2,1.3,0.3l-0.7,5.6
		L401.9,542.9z M406,538.4l10-0.2l-0.3,2.3c-0.5-0.1-0.5-0.1-0.9-0.2C411.7,539.6,409,539,406,538.4z M412.2,522.1l7.3-5l-1.8,12.4
		C417.6,529.5,412.2,522.1,412.2,522.1z M418.6,541.1l0.3-2h11.3l1.5,5C429.3,543.6,425,542.6,418.6,541.1z M420,300
		c0.3-4.4,1.1-8.5,2.5-12.1l16.2-14l-2.3,16.3C436.5,290.3,420,300,420,300z M420.6,425.6c0-7.4,3.8-14.7,6.1-21.6l2.2,6.3
		C428.9,410.2,420.6,425.6,420.6,425.6z M420.6,310.9l12.7-0.5l-0.1,21.5l-11.3-13L420.6,310.9z M421.6,305.1l13.9-8.2l-1,7
		L421.6,305.1z M422.7,432.9l8.6-16l1.3,3.6l-9.6,12.7L422.7,432.9z M427.4,435.9l7.2-9.5l3.3,9.5
		C437.9,435.9,427.4,435.9,427.4,435.9z M429.9,445.3l9.5-0.4l7,21.5C438.6,459.5,430.9,451.9,429.9,445.3z M437.9,542.4v-0.1V542.4
		L437.9,542.4z M438.1,532.1c3.8-5.1,8.8-8.9,12.9-16.2c4.2-7.5,7.6-24.5,7.2-44.2l76.2,13.5l-33.6,17.4c-1.4-4.1-2.8-8-3.5-11.8
		l-1.4,0.3l0.1-1.3h-2.2l-0.2,1.5l-0.5-0.6C493.3,490.6,438.1,532.1,438.1,532.1z M439.6,339.4c9.1,0.1,18.1,0,27.2,0.1l-10.4,19.3
		L439.6,339.4z M440,400.6l17.5-32.6l7.8,9l-17.9,23.7C445,400.8,442.5,400.8,440,400.6z M443.2,265.3l0.1-3.5
		c34.9-21.4,53-47.1,99.1-51.8l-56.3,49.2l-41,8.6L443.2,265.3z M446.2,542.1l14.4-0.2l26.4,4.9l-3.1,25.1L446.2,542.1L446.2,542.1z
		 M450.3,534.5l40.7-21l-2.5,21.4c-0.4,0.3-0.8,0.6-1.2,0.9l-0.3,0.2l-24.6,0.7L450.3,534.5z M452.5,553.8l30.7,24.2l-0.1,0.9
		c-0.4,0.7-0.9,1.4-1.3,2l1,0.7l-0.3,2.5l2.6,0.7l0.2-1.5l0.8,0.6c3.7-5.9,8.4-11.7,10.6-19.3c1.3-4.7,1.4-10-0.3-16l22.6,4.2v2.1
		l2.8-1.6l0.4,0.1l0.1-0.3l2-1.2l0.2-4.2l3.7-3h5.5l-43.3,53L452.5,553.8L452.5,553.8z M454.2,400.3L465,386
		c10.6,0.7,19.7,1.7,27.3,2.7C480.3,393.8,468.2,398.8,454.2,400.3z M454.3,470.9l0.8,0.1l-0.6,0.8L454.3,470.9z M454.4,526.4
		l38.5-29l-1.2,9.7L454.4,526.4z M460.1,363.1l12.6-23.5c6.7,0.2,13.5,0.6,20.4,1.4L469,373.3L460.1,363.1z M486.7,573.3l3.8-25.8
		l0.2,0c2.3,6.2,2.2,11.1,0.9,15.5C490.6,566.6,488.8,569.9,486.7,573.3z M486.9,541.3h0.7v0.1L486.9,541.3z M491.5,532.1l2.1-20
		l3.9-2c0.3,1.4,0.6,2.7,0.8,4C499,520,498,525.6,491.5,532.1z M492.6,539.5l6.6,0.3l0.1,3.9l-5.1-0.9
		C493.7,541.7,493.2,540.6,492.6,539.5z M494.3,505.8l0.5-4.5c0.4,1.2,0.8,2.4,1.2,3.6L494.3,505.8z M494.4,273.6l25.9-8l0.3,33.5
		H513v-6.4l-6.9-0.4l-0.3,4.5l-11,0.7L494.4,273.6L494.4,273.6z M495,535.9c7.4-7.6,9.3-15.3,8.4-22.3c-0.2-2-0.7-4-1.2-5.9
		l36.7-18.9l0.6,2.4l-0.3,0.2l0.6,0.8l0.1,0.2l0.1,0l7.4,10.2L524,534.5l-0.5-3.1l-5.2-0.2v2.7l-19.4,0.8l0.3,1.3H495z M501.6,316.7
		l10.3,1.1l0.2-10.4h8.8l0.2,33.9C506.7,331,505.8,324.5,501.6,316.7L501.6,316.7z M503.1,355.8c0-4.9,0.1-10,0.3-15.2l17.7,2.5
		l0.1,13.3l4.7,0.2l0.2-17.8c19.5-9.8,45.9-8.5,62.9-8.6c-4.5-7-6.9-20.4-8-26.8l12-0.7l0.5,3.4h4.4v3l-2.9,0.2v3.2h-7l-0.3,3.5
		l6.8-0.2l0.5,2.4l-4.4,0.2l0.5,3.2l11.5,4.3v1.9l-7.6,0.5v3l5,3.2v12.9h-2.6l0.3-2.1l-3.4-0.3l0.2,2.2l-2.9-0.6l-0.2,3l8.3-0.3
		l0.3,8.1l-5.5,0.3l0.2,3l2.6-0.5l-0.5,3.2l2,0.3l-0.5,24.2c0,0-8.1,8.3-8.3,9.4c-0.3,1.1,3.7,1.1,3.7,1.1l3.4-4.9l-0.8,9.7
		c0,0,1.3,0.2,2.3,0.2c1,0,3.7-4.3,3.7-4.3h1.3v3.5h1.8l0.3,4.6l7-0.2l-0.2,20.4h-7.1l0.3,2.2h-5.5l-0.2,3.2l-2.4,0.2l0.1,0.8H586
		c-11-49-0.2-51.6,4-68.2l-69.7,8.7l-0.3-6l-6.6,1.5l2.1,9.9c-3,0.9-6,2-9,3.1C504,375.3,503.2,366,503.1,355.8L503.1,355.8z
		 M503.2,544.4l15.7-0.5v3.4L503.2,544.4z M512.9,415.8c-0.1-10.6,2.4-18.9,4.5-27l9.1,42.5l-11.3,1.1
		C513.6,426.3,513,420.8,512.9,415.8L512.9,415.8z M518.9,447.9h9.1l9.1,33.5C530.6,472.4,523.6,465.8,518.9,447.9z M528.2,537.5
		l22.6-30.5l22.3,30.5c-15,0.4-35.4,0.8-35.4,0.8l-1.1-2.4h-4.9l-0.2,2.4L528.2,537.5z M542.9,486.9l11.5,6.4l-3.6,4.9l-7.3-10
		l-0.3,0.3L542.9,486.9z M544.5,147c0-3.2,0.1-6.6,0.3-10l11.2,28.6l-1.3,0.5l9.8,25l-9,6.4C549.4,183,544.6,167.2,544.5,147z
		 M544.7,129.1l33.6,34.7l-19.3,0.5l-11.1-28.6L544.7,129.1z M547,248.6c0-28.9,11.4-45.7,18.3-55.5l9.6,24.6L557.5,248L547,248.6
		L547,248.6z M550.2,482.7c1,0.1,2.1,0.2,3.3,0.3c2,0.1,5.1,0,8.8-0.3l-2.5,3.3c-2.3-0.8-4.7-1.6-6.7-2.3
		C552,483.3,551.2,483,550.2,482.7z M554.1,502.6l5-6.8l41.4,23.1l-0.1,3.6h-2.6v3.5l2.1,0.5l0.5,1.6l-3.4,0.5l0.2,3.8h3.1v2.6
		l-7,0.3l0.5-2.7h-4.7l0.2,3l-3.9-0.3l0.2,1.7c-1.5,0.1-3.6,0.2-6.2,0.3L554.1,502.6z M562.9,167.6l18.2-0.9l3.2,3.3l0.2,0.2
		l0.3,0.2c38.8,24.1,47.7,44.9,57.3,66.7c-0.9-0.5-1.8-0.9-2.6-1.4c-10-5.9-22.9-20.4-22.9-20.4l-3.7-1.6v0
		c-0.8-0.3-2.3-1.9-4.1-4.5c-1.8-2.6-4.1-5.9-7.3-9.3c-6.1-6.5-15.6-13-31.5-14.6L562.9,167.6L562.9,167.6z M563.7,247.7l13.6-23.8
		l0.8,2.2l3.6,0.2l7.7,20L563.7,247.7L563.7,247.7z M565,487.8l4-5.5l-0.3-0.2c12.1-1.2,26-3.2,26-3.2c-3.4-6.1-6-18.7-8.4-32.8
		l12.4,0.2v0l3.7,1.9l0.3,5.4l-2.9,0.2l-3.1,2.2l0.3,2.7l5.2-2.7l-0.2,12.9l-1.8,0.6l0.2,1.6h-3.4v5.7h2.6l2.6,3.5l-0.9,20.4
		c-5.9-2.1-14.5-5.2-25.2-9C572.3,490.3,568.6,489,565,487.8z M566.5,493.9c2.7,1,5.1,1.8,7.8,2.7c11.9,4.2,21.3,7.6,26.6,9.5
		l-0.3,6.8L566.5,493.9z M570.6,633c0.6-4.9,1.1-9.9,1.5-14.8c0.9-0.1,1.7-0.2,2.8-0.3c1.1-0.1,2.3-0.2,3.4-0.2l-3.5,28.9L570.6,633
		L570.6,633z M572.6,190.9c13,1.9,20.3,7.2,25.4,12.7c1.7,1.8,3,3.6,4.3,5.3l-0.2-0.1l-13.5-3.2c-5.2-0.5-3.4,1.9-4.2,3.2l6.3,6.4
		l4.2,9.7l-8.2-0.2L572.6,190.9z M572.6,612.8c0.3-3.5,0.6-7,0.9-10.6l6.7-0.1l-1.2,10.2c-1.5,0.1-3.1,0.2-4.5,0.3
		C573.8,612.7,573.3,612.7,572.6,612.8z M574.1,596.9c1.6-16.5,3.6-33,8.2-49.2l2.3-0.1l-0.5,1.4v6.1h1.8l-5.1,41.6L574.1,596.9z
		 M579.5,284.1c0.1-16.8,4.3-27.8,10.7-35.9l6.9,18l-8.1-0.5l0.6,4l7.8-0.3l3.1,5.7l-6.5-0.2v7.5l1.8,0.3l2.6-3c0,0,1.8,0,3.4,0.2
		c1.6,0.3,1.1,3.2,1.1,3.2l-7.3,3v4.3l1.6,0.3l1.5,4.5l-6.8,0.3l0.3,2.2l-12,0.2C579.7,292.8,579.5,288.3,579.5,284.1L579.5,284.1z
		 M581.2,612.2l1.3-10.2l8.3-0.2l-0.3,0.9l-3,1.9l4.1,3.8l3.7-0.3v3.4c-2.6,0.1-5.8,0.2-9.3,0.4C584.3,612,582.8,612.1,581.2,612.2
		L581.2,612.2z M583.1,596.7l5.1-41.6c0,0,10.7-0.7,12.2-0.7c1.5,0-1.5,5.3-1.5,5.3l-8.8,0.4l0.7,1.9h2.9l0.4,2.3l4,0.4v12.6l-4,0.4
		l0.7,6.8l-2.9-0.4l-0.7,2.6h3l0.3,5.7h-3.3l0.4,1.9h2.2l0.2,2.1L583.1,596.7L583.1,596.7z M588.4,228.6l7-0.2l1.8,7.8l-3-0.2
		l0.2,3.6l-2.8-0.4L588.4,228.6z M604.2,368.1l7-0.3l0.2,10.4l-7.2,0.1L604.2,368.1z M604.3,381h7.3l0.1,9.4h-6.5L604.3,381z
		 M604.3,365.2l0.4-10l6.1-0.1l0.1,10L604.3,365.2z M604.5,353l0.2-8l5.2-0.5l0.5,8.3L604.5,353z M608,629.7l1.1-23.7l3.8,5.3
		l-0.9,16.5L608,629.7z M608.9,596.1v-2.6l6-1.9l0.2,5.5L608.9,596.1z M609.1,597.8l5.6,1.5v7.7L609.1,597.8z M609.3,592l6-10.9
		l-0.2,8.7L609.3,592z M611.1,581.6l1.8-30.9h3.3l-1.5,25.4L611.1,581.6z M616.8,587.9l0.2-5.8h8.2v5.5L616.8,587.9z M617.1,606
		l0.2-6.3l7.3-0.6v6.2L617.1,606z M617.3,591.8l7.4-0.3l0.4,4.5l-7.7,0.4L617.3,591.8z M627.7,266.9l8.3-0.1c0,0,2.9,17.1,2.4,17.1
		s-8.3-0.2-8.3-0.2L627.7,266.9z M632.1,296.6l7.7-0.1l1.8,18.4h-7.2L632.1,296.6z M635.4,328.3l7.1,0.1l0.8,15.3l-7.5,0.3
		L635.4,328.3z M636.4,358.3l7.5,0.1l0.7,14.8l-7.7-0.1L636.4,358.3z M637.1,512.7l7.2-0.1l0.2,6.7l-7.3-0.2L637.1,512.7z
		 M637.5,497.8l7.2-0.1l0.2,6.6l-7.3-0.2L637.5,497.8z M637.7,403.8v-13.4l7.3,0.1l0.5,13.5L637.7,403.8z M637.9,423.9l7.8-0.1
		l0.2,12.9h-7.8L637.9,423.9z M638.2,485l7.2-0.1l0.3,6.7l-7.4-0.2L638.2,485z M638.2,472.3l7.2-0.1l0.3,6.6l-7.4-0.3L638.2,472.3z"
		/>
</g>
<rect x="683" y="-122.7" width="384" height="1013.5"/>
<path class="st0" d="M1055.7,440.3l-9.8,5.3l-4.1-3.2l-26.3,1.6l-8.9,16.6l-0.9-0.2l-18.5,25.2l29.3,50.5l5.6,0.2v3.5l-8.3-0.2
	l-0.9,0.6l-0.3-0.6l-34.4-0.8l0.4,0.6l-25.9,17.8l0.6,4.4l-2.2,0.6l-1.5-9l-0.1-0.2l0.1-0.1l-1.1-6.6c-9.2,2.1-17.4,4-17.4,4
	l-0.3-1.5h-2.8l0.2-3.8l-48.8,56.8l1.5,1.9c0,0-15.7,0.8-15,0.8c0.7,0,13.9,6.4,13.9,6.4s-12.8,7.1-13.5,13.5
	c-2.2,20.2-0.7,29.6-11.9,35.6c11-22.8-1.8-31.2-1.5-37.3c0.4-5.9,4.4-17.1,4.4-17.1c-38.1,10.6-42.7,20.6-58,30.8l-6.8,18.5
	l-0.3-0.8l0.4,3.4l-2.2,0.4l-4.9-40.3c-1.8-0.1-3.7-0.2-5.5-0.3c-3.4-0.2-6.5-0.3-9.1-0.4v4.9l2.2,1.2l1.1,5.7l7-0.3l-1.1,1.9h2.6
	l-0.4,2.3H780v1.2h-3.7l1.1,2.7l-5.2,0.3l-0.4,3.6h1.9l3.3-1.9l7,5.2l-1.9,2.7l3.3,0.3l1.2,1.6h-2.6l-2.6,3l-7-5.7l-7.2-0.8
	l-1.4-8.7L734.7,623l-8.3-15.1l-4.2,11.9c-16.9-8.5-31.7-9.4-38.9-6.5l6.6-364.7c0,0,15.2-4,26.9-8.6c10.6-23.2,18.8-47.3,60.8-73.6
	l-1.9-0.1l-0.6-2.8l5.4,0.1l43.8-45.3l0.8,0.9l1.5-1.4l3.9-8l-2.3,6.5l0.4-0.4l150.4,171.7l13.9,5.5l-1.6-6.1h2.8l8.5,22.9l30.7,2.6
	l-0.2,3l-29.7-1.3l4.4,19.7l-2.6,0.5c0,0-1.8-9.3-2.8-9.3c-0.8,0-11.9,0.7-17.2,1.1c-1.8,4.1-3.7,8-5.5,11.9l43.3,76.9l0.6-2.3h4.1
	l-10.3,26.1l23.7-0.5l5.2-3.2L1055.7,440.3L1055.7,440.3z M1018.1,416.4l-40.8-72.6c-2.5,5.4-5,10.9-7.5,16.8l21.4,44.1l3,0.2
	l-1.3,3.1l0.8,1.6l-1.9,1l-1.2,2.8L1018.1,416.4z M1010.3,536l-26.5-45.8L961,521.2l19.1,13.8C980.1,535.1,1010.3,536,1010.3,536z
	 M1003.2,454.9l-23.8,2.9l5.7-14.4l-6.7,0.5l-5.4,17l11.3,19.6C984.3,480.6,1003.2,454.9,1003.2,454.9z M990.4,426.9
	c0-2.8-1.1-5.4-2.2-8l-7.6,18.1l8,0.7l1.6-8.7C990.4,428.4,990.4,427.6,990.4,426.9z M987,408.2l-19.9-41.1
	c-4.3,10.8-8.6,23.3-12.9,39C963.2,408.8,973.7,410.4,987,408.2z M982.8,318.7c0-1.9-0.3-4.1-1.1-6.7h-12.4l4.1,14.5l3.3,5.9
	c2-4.3,3.9-8.6,5.9-13.1l0.1,0C982.8,319.1,982.8,318.9,982.8,318.7z M981.5,306.6c-0.2-5.2-1.7-9.6-3.9-13.5l-0.4,0.3L827.5,122.6
	l-2.2,2.3l-3.1,9.1c33.4,42.1,62.8,83.1,100.4,126.4l-0.2-3.3l2.6,0.8l1.2,8.2l13,11.2l20.6,9.3l-1.8-9.6h2.8l7.3,29.3L981.5,306.6
	L981.5,306.6z M981,485.2l-11.1-19.3l-3.1,0.5l0.9-4.3l-0.5-0.9l-48.8,9.3l-2.6,7.9l-2,0.3c-0.6,18.4,2.1,28,5.7,34.5
	c3.4,6.1,8,9.6,12.1,15h0.1l0.2,0.4c0.5,0.6,0.9,1.2,1.3,1.8l-0.2,0.2l2.5,4.7l10.9-0.2l-1.3-1.1l1.2-1.6l-2.4-17.2l-1.1-0.7
	l0.8-1.2l-0.8-6l2.4-0.2l0.5,3.2l0.1-0.1l11.1,8.1C956.7,518.2,981,485.2,981,485.2z M974.1,338.2l-8.3-14.8l-13,2.2l13.9,28.8
	C969.2,348.8,971.7,343.5,974.1,338.2z M972.5,534.9l-14.4-9.8l-6.8,9.2L972.5,534.9z M964.1,360.9l-16.6-34.3l-3.7,0.6l-10.9,12.6
	l0.1,11h-3.1l-0.1-7.3l-17.6,20.3l19.5,36.2c1.4-0.2,2.7-0.4,4.1-0.6l2.2-4.9l4.4,0.7l-2.1,6c2.9,1.1,5.9,2.2,9.1,3.3
	C954.3,386.6,959.2,372.8,964.1,360.9L964.1,360.9z M964.1,542.9c-3.6,0.8-7.6,1.7-11.7,2.6c-0.5,0.1-0.8,0.2-1.3,0.3l0.7,5.6
	L964.1,542.9z M960,538.4l-10-0.2l0.3,2.3c0.5-0.1,0.5-0.1,0.9-0.2C954.3,539.6,957,539,960,538.4z M953.8,522.1l-7.3-5l1.8,12.4
	C948.4,529.5,953.8,522.1,953.8,522.1z M947.4,541.1l-0.3-2h-11.3l-1.5,5C936.7,543.6,941,542.6,947.4,541.1z M946,300
	c-0.3-4.4-1.1-8.5-2.5-12.1l-16.2-14l2.3,16.3C929.5,290.3,946,300,946,300z M945.4,425.6c0-7.4-3.8-14.7-6.1-21.6l-2.2,6.3
	C937.1,410.2,945.4,425.6,945.4,425.6z M945.4,310.9l-12.7-0.5l0.1,21.5l11.3-13L945.4,310.9z M944.4,305.1l-13.9-8.2l1,7
	L944.4,305.1z M943.3,432.9l-8.6-16l-1.3,3.6l9.6,12.7L943.3,432.9z M938.6,435.9l-7.2-9.5l-3.3,9.5
	C928.1,435.9,938.6,435.9,938.6,435.9z M936.1,445.3l-9.5-0.4l-7,21.5C927.4,459.5,935.1,451.9,936.1,445.3z M928.1,542.4v-0.1
	V542.4L928.1,542.4z M927.9,532.1c-3.8-5.1-8.8-8.9-12.9-16.2c-4.2-7.5-7.6-24.5-7.2-44.2l-76.2,13.5l33.6,17.4
	c1.4-4.1,2.8-8,3.5-11.8l1.4,0.3l-0.1-1.3h2.2l0.2,1.5l0.5-0.6C872.7,490.6,927.9,532.1,927.9,532.1z M926.4,339.4
	c-9.1,0.1-18.1,0-27.2,0.1l10.4,19.3L926.4,339.4z M926,400.6L908.5,368l-7.8,9l17.9,23.7C921,400.8,923.5,400.8,926,400.6z
	 M922.8,265.3l-0.1-3.5c-34.9-21.4-53-47.1-99.1-51.8l56.3,49.2l41,8.6L922.8,265.3z M919.8,542.1l-14.4-0.2l-26.4,4.9l3.1,25.1
	L919.8,542.1L919.8,542.1z M915.7,534.5l-40.7-21l2.5,21.4c0.4,0.3,0.8,0.6,1.2,0.9l0.3,0.2l24.6,0.7L915.7,534.5z M913.5,553.8
	L882.9,578l0.1,0.9c0.4,0.7,0.9,1.4,1.3,2l-1,0.7l0.3,2.5l-2.6,0.7l-0.2-1.5l-0.8,0.6c-3.7-5.9-8.4-11.7-10.6-19.3
	c-1.3-4.7-1.4-10,0.3-16l-22.6,4.2v2.1l-2.8-1.6l-0.4,0.1l-0.1-0.3l-2-1.2l-0.2-4.2l-3.7-3h-5.5l43.3,53L913.5,553.8L913.5,553.8z
	 M911.8,400.3L901,386c-10.6,0.7-19.7,1.7-27.3,2.7C885.7,393.8,897.8,398.8,911.8,400.3z M911.7,470.9l-0.8,0.1l0.6,0.8
	L911.7,470.9z M911.6,526.4l-38.5-29l1.2,9.7L911.6,526.4z M905.9,363.1l-12.6-23.5c-6.7,0.2-13.5,0.6-20.4,1.4l24.1,32.4
	L905.9,363.1z M879.3,573.3l-3.8-25.8l-0.2,0c-2.3,6.2-2.2,11.1-0.9,15.5C875.4,566.6,877.2,569.9,879.3,573.3z M879.1,541.3h-0.7
	v0.1L879.1,541.3z M874.5,532.1l-2.1-20l-3.9-2c-0.3,1.4-0.6,2.7-0.8,4C867,520,868,525.6,874.5,532.1z M873.4,539.5l-6.6,0.3
	l-0.1,3.9l5.1-0.9C872.3,541.7,872.8,540.6,873.4,539.5z M871.7,505.8l-0.5-4.5c-0.4,1.2-0.8,2.4-1.2,3.6L871.7,505.8z M871.6,273.6
	l-25.9-8l-0.3,33.5h7.6v-6.4l6.9-0.4l0.3,4.5l11,0.7L871.6,273.6L871.6,273.6z M871,535.9c-7.4-7.6-9.3-15.3-8.4-22.3
	c0.2-2,0.7-4,1.2-5.9L827,488.7l-0.6,2.4l0.3,0.2l-0.6,0.8l-0.1,0.2l-0.1,0l-7.4,10.2l23.6,31.9l0.5-3.1l5.2-0.2v2.7l19.4,0.8
	l-0.3,1.3H871z M864.4,316.7l-10.3,1.1l-0.2-10.4h-8.8l-0.2,33.9C859.3,331,860.2,324.5,864.4,316.7L864.4,316.7z M862.9,355.8
	c0-4.9-0.1-10-0.3-15.2l-17.7,2.5l-0.1,13.3l-4.7,0.2l-0.2-17.8c-19.5-9.8-45.9-8.5-62.9-8.6c4.5-7,6.9-20.4,8-26.8l-12-0.7
	l-0.5,3.4h-4.4v3l2.9,0.2v3.2h7l0.3,3.5l-6.8-0.2l-0.5,2.4l4.4,0.2l-0.5,3.2l-11.5,4.3v1.9l7.6,0.5v3l-5,3.2v12.9h2.6l-0.3-2.1
	l3.4-0.3l-0.2,2.2l2.9-0.6l0.2,3l-8.3-0.3l-0.3,8.1l5.5,0.3l-0.2,3l-2.6-0.5l0.5,3.2l-2,0.3l0.5,24.2c0,0,8.1,8.3,8.3,9.4
	c0.3,1.1-3.7,1.1-3.7,1.1l-3.4-4.9l0.8,9.7c0,0-1.3,0.2-2.3,0.2c-1,0-3.7-4.3-3.7-4.3h-1.3v3.5h-1.8l-0.3,4.6l-7-0.2l0.2,20.4h7.1
	l-0.3,2.2h5.5l0.2,3.2l2.4,0.2l-0.1,0.8H780c11-49,0.2-51.6-4-68.2l69.7,8.7l0.3-6l6.6,1.5l-2.1,9.9c3,0.9,6,2,9,3.1
	C862,375.3,862.8,366,862.9,355.8L862.9,355.8z M862.8,544.4l-15.7-0.5v3.4L862.8,544.4z M853.1,415.8c0.1-10.6-2.4-18.9-4.5-27
	l-9.1,42.5l11.3,1.1C852.4,426.3,853,420.8,853.1,415.8L853.1,415.8z M847.1,447.9H838l-9.1,33.5
	C835.4,472.4,842.4,465.8,847.1,447.9z M837.8,537.5L815.2,507l-22.3,30.5c15,0.4,35.4,0.8,35.4,0.8l1.1-2.4h4.9l0.2,2.4
	L837.8,537.5z M823.1,486.9l-11.5,6.4l3.6,4.9l7.3-10l0.3,0.3L823.1,486.9z M821.5,147c0-3.2-0.1-6.6-0.3-10L810,165.5l1.3,0.5
	l-9.8,25l9,6.4C816.6,183,821.4,167.2,821.5,147z M821.3,129.1l-33.6,34.7l19.3,0.5l11.1-28.6L821.3,129.1z M819,248.6
	c0-28.9-11.4-45.7-18.3-55.5l-9.6,24.6l17.4,30.3L819,248.6L819,248.6z M815.8,482.7c-1,0.1-2.1,0.2-3.3,0.3c-2,0.1-5.1,0-8.8-0.3
	l2.5,3.3c2.3-0.8,4.7-1.6,6.7-2.3C814,483.3,814.8,483,815.8,482.7z M811.9,502.6l-5-6.8l-41.4,23.1l0.1,3.6h2.6v3.5l-2.1,0.5
	l-0.5,1.6l3.4,0.5l-0.2,3.8h-3.1v2.6l7,0.3l-0.5-2.7h4.7l-0.2,3l3.9-0.3l-0.2,1.7c1.5,0.1,3.6,0.2,6.2,0.3L811.9,502.6z
	 M803.1,167.6l-18.2-0.9l-3.2,3.3l-0.2,0.2l-0.3,0.2c-38.8,24.1-47.7,44.9-57.3,66.7c0.9-0.5,1.8-0.9,2.6-1.4
	c10-5.9,22.9-20.4,22.9-20.4l3.7-1.6v0c0.8-0.3,2.3-1.9,4.1-4.5c1.8-2.6,4.1-5.9,7.3-9.3c6.1-6.5,15.6-13,31.5-14.6L803.1,167.6
	L803.1,167.6z M802.3,247.7l-13.6-23.8l-0.8,2.2l-3.6,0.2l-7.7,20L802.3,247.7L802.3,247.7z M801,487.8l-4-5.5l0.3-0.2
	c-12.1-1.2-26-3.2-26-3.2c3.4-6.1,6-18.7,8.4-32.8l-12.4,0.2v0l-3.7,1.9l-0.3,5.4l2.9,0.2l3.1,2.2l-0.3,2.7l-5.2-2.7l0.2,12.9
	l1.8,0.6l-0.2,1.6h3.4v5.7h-2.6l-2.6,3.5l0.9,20.4c5.9-2.1,14.5-5.2,25.2-9C793.7,490.3,797.4,489,801,487.8z M799.5,493.9
	c-2.7,1-5.1,1.8-7.8,2.7c-11.9,4.2-21.3,7.6-26.6,9.5l0.3,6.8L799.5,493.9z M795.4,633c-0.6-4.9-1.1-9.9-1.5-14.8
	c-0.9-0.1-1.7-0.2-2.8-0.3c-1.1-0.1-2.3-0.2-3.4-0.2l3.5,28.9L795.4,633L795.4,633z M793.4,190.9c-13,1.9-20.3,7.2-25.4,12.7
	c-1.7,1.8-3,3.6-4.3,5.3l0.2-0.1l13.5-3.2c5.2-0.5,3.4,1.9,4.2,3.2l-6.3,6.4l-4.2,9.7l8.2-0.2L793.4,190.9z M793.4,612.8
	c-0.3-3.5-0.6-7-0.9-10.6l-6.7-0.1l1.2,10.2c1.5,0.1,3.1,0.2,4.5,0.3C792.2,612.7,792.7,612.7,793.4,612.8z M791.9,596.9
	c-1.6-16.5-3.6-33-8.2-49.2l-2.3-0.1l0.5,1.4v6.1H780l5.1,41.6L791.9,596.9z M786.5,284.1c-0.1-16.8-4.3-27.8-10.7-35.9l-6.9,18
	l8.1-0.5l-0.6,4l-7.8-0.3l-3.1,5.7l6.5-0.2v7.5l-1.8,0.3l-2.6-3c0,0-1.8,0-3.4,0.2c-1.6,0.3-1.1,3.2-1.1,3.2l7.3,3v4.3l-1.6,0.3
	l-1.5,4.5l6.8,0.3l-0.3,2.2l12,0.2C786.3,292.8,786.5,288.3,786.5,284.1L786.5,284.1z M784.8,612.2l-1.3-10.2l-8.3-0.2l0.3,0.9
	l3,1.9l-4.1,3.8l-3.7-0.3v3.4c2.6,0.1,5.8,0.2,9.3,0.4C781.7,612,783.2,612.1,784.8,612.2L784.8,612.2z M782.9,596.7l-5.1-41.6
	c0,0-10.7-0.7-12.2-0.7c-1.5,0,1.5,5.3,1.5,5.3l8.8,0.4l-0.7,1.9h-2.9l-0.4,2.3l-4,0.4v12.6l4,0.4l-0.7,6.8l2.9-0.4l0.7,2.6h-3
	l-0.3,5.7h3.3l-0.4,1.9h-2.2l-0.2,2.1L782.9,596.7L782.9,596.7z M777.6,228.6l-7-0.2l-1.8,7.8l3-0.2l-0.2,3.6l2.8-0.4L777.6,228.6z
	 M761.8,368.1l-7-0.3l-0.2,10.4l7.2,0.1L761.8,368.1z M761.7,381h-7.3l-0.1,9.4h6.5L761.7,381z M761.7,365.2l-0.4-10l-6.1-0.1
	l-0.1,10L761.7,365.2z M761.5,353l-0.2-8l-5.2-0.5l-0.5,8.3L761.5,353z M758,629.7l-1.1-23.7l-3.8,5.3l0.9,16.5L758,629.7z
	 M757.1,596.1v-2.6l-6-1.9l-0.2,5.5L757.1,596.1z M756.9,597.8l-5.6,1.5v7.7L756.9,597.8z M756.7,592l-6-10.9l0.2,8.7L756.7,592z
	 M754.9,581.6l-1.8-30.9h-3.3l1.5,25.4L754.9,581.6z M749.2,587.9l-0.2-5.8h-8.2v5.5L749.2,587.9z M748.9,606l-0.2-6.3l-7.3-0.6v6.2
	L748.9,606z M748.7,591.8l-7.4-0.3l-0.4,4.5l7.7,0.4L748.7,591.8z M738.3,266.9l-8.3-0.1c0,0-2.9,17.1-2.4,17.1
	c0.5,0,8.3-0.2,8.3-0.2L738.3,266.9z M733.9,296.6l-7.7-0.1l-1.8,18.4h7.2L733.9,296.6z M730.6,328.3l-7.1,0.1l-0.8,15.3l7.5,0.3
	L730.6,328.3z M729.6,358.3l-7.5,0.1l-0.7,14.8l7.7-0.1L729.6,358.3z M728.9,512.7l-7.2-0.1l-0.2,6.7l7.3-0.2L728.9,512.7z
	 M728.5,497.8l-7.2-0.1l-0.2,6.6l7.3-0.2L728.5,497.8z M728.3,403.8v-13.4l-7.3,0.1l-0.5,13.5L728.3,403.8z M728.1,423.9l-7.8-0.1
	l-0.2,12.9h7.8L728.1,423.9z M727.8,485l-7.2-0.1l-0.3,6.7l7.4-0.2L727.8,485z M727.8,472.3l-7.2-0.1l-0.3,6.6l7.4-0.3L727.8,472.3z
	"/>
</svg>
